<svg width="512" height="512" viewBox="0 0 512 512" fill="none" xmlns="http://www.w3.org/2000/svg">
<path fill-rule="evenodd" clip-rule="evenodd" d="M24 128C24 70.5624 70.5624 24 128 24H384C441.438 24 488 70.5624 488 128V384C488 441.438 441.438 488 384 488H128C70.5624 488 24 441.438 24 384V128ZM128 40C79.3989 40 40 79.3989 40 128V384C40 432.601 79.3989 472 128 472H384C432.601 472 472 432.601 472 384V128C472 79.3989 432.601 40 384 40H128ZM138.667 220C133.356 220 128.117 221.44 123.472 224.206C118.825 226.973 114.92 230.981 112.187 235.862C109.453 240.746 108 246.313 108 252C108 257.687 109.453 263.254 112.187 268.138C114.92 273.019 118.825 277.027 123.472 279.794C128.117 282.56 133.356 284 138.667 284C143.977 284 149.216 282.56 153.861 279.794C159.556 276.404 166.92 278.272 170.311 283.966C173.701 289.661 171.833 297.025 166.139 300.416C157.811 305.374 148.335 308 138.667 308C128.998 308 119.522 305.374 111.194 300.416C102.87 295.46 96.0022 288.358 91.2455 279.862C86.4901 271.368 84 261.76 84 252C84 242.24 86.4901 232.632 91.2455 224.138C96.0022 215.642 102.87 208.54 111.194 203.584C119.522 198.626 128.998 196 138.667 196C148.335 196 157.811 198.626 166.139 203.584C171.833 206.975 173.701 214.339 170.311 220.034C166.92 225.728 159.556 227.596 153.861 224.206C149.216 221.44 143.977 220 138.667 220ZM220 196C197.909 196 180 213.909 180 236V268C180 290.091 197.909 308 220 308C242.091 308 260 290.091 260 268V236C260 213.909 242.091 196 220 196ZM204 236C204 227.163 211.163 220 220 220C228.837 220 236 227.163 236 236V268C236 276.837 228.837 284 220 284C211.163 284 204 276.837 204 268V236ZM268 236C268 213.909 285.909 196 308 196C330.091 196 348 213.909 348 236V268C348 290.091 330.091 308 308 308C285.909 308 268 290.091 268 268V236ZM308 220C299.163 220 292 227.163 292 236V268C292 276.837 299.163 284 308 284C316.837 284 324 276.837 324 268V236C324 227.163 316.837 220 308 220ZM380 208C380 201.373 374.627 196 368 196C361.373 196 356 201.373 356 208V296C356 302.627 361.373 308 368 308H416C422.627 308 428 302.627 428 296C428 289.373 422.627 284 416 284H380V208Z" fill="black" id="id_101"></path>
</svg>